# xmcd
#
# Track frame offsets: 
#        150
#        5189
#        23268
#        39197
#        54849
#        73690
#        90582
#        105781
#        119761
#        134791
#
# Disc length: 1955 seconds
#
# Revision: 1
# Processed by: cddbd v1.5.2PL0 Copyright (c) Steve Scherf et al.
# Submitted via: ExactAudioCopy v0.99pb4
#
DISCID=7907a10a
DTITLE=Candace Devine - Believe
DYEAR=2006
DGENRE=Women
TTITLE0=Won't You Try
TTITLE1=Free
TTITLE2=Don't Save Your Love
TTITLE3=Kissed You Again
TTITLE4=You'll Never Break My Heart Again
TTITLE5=Believe
TTITLE6=Baby I Love You
TTITLE7=Tell Me How To Stop
TTITLE8=I've Been Loving You Too Long
TTITLE9=For Tonight
EXTD=
EXTT0=
EXTT1=
EXTT2=
EXTT3=
EXTT4=
EXTT5=
EXTT6=
EXTT7=
EXTT8=
EXTT9=
PLAYORDER=
